Coordinates
version=1
nRows=32
nColumns=22
inDegrees=yes

Units are S.I. units (second, meters, Newtons, ...)
If the header above contains a line with 'inDegrees', this indicates whether rotational values are in degrees (yes) or radians (no).

endheader
time	pelvis_tilt	pelvis_list	pelvis_rotation	pelvis_tx	pelvis_ty	pelvis_tz	hip_flexion_r	hip_adduction_r	hip_rotation_r	knee_angle_r	ankle_angle_r	subtalar_angle_r	hip_flexion_l	hip_adduction_l	hip_rotation_l	knee_angle_l	ankle_angle_l	subtalar_angle_l	lumbar_extension	lumbar_bending	lumbar_rotation
      4.10000000	      0.19118272	      2.57228973	    172.21903379	      0.29060115	      1.00276031	     -0.46121276	     23.53681155	     -0.75375367	      8.60845401	    -30.47024983	      8.64331736	      6.27155829	      4.14076271	      6.81869016	      2.63062087	    -16.30621786	     13.33218674	     -9.88466176	    -14.11576108	      1.45747100	     -1.91313046
      4.11000000	      0.22948953	      2.70129260	    172.98789828	      0.28572316	      1.00260790	     -0.46158983	     23.75600795	     -0.42787094	      8.78968117	    -28.73780616	      8.34207587	      7.15240051	      3.90059318	      6.67387027	      3.35701864	    -16.41964775	     13.58304455	     -9.83603515	    -14.18629663	      1.60268189	     -1.85820306
      4.12000000	      0.24758327	      2.82817557	    173.76587401	      0.28074328	      1.00243816	     -0.46193035	     23.93258704	     -0.13084099	      8.83212738	    -27.01207416	      8.04854926	      8.09935305	      3.63308794	      6.52896026	      4.08736745	    -16.52574605	     13.84357419	     -9.78314715	    -14.26257502	      1.74636516	     -1.81700891
      4.13000000	      0.24722313	      2.94711963	    174.54470297	      0.27565843	      1.00224557	     -0.46224497	     24.06849356	      0.13853713	      8.76011104	    -25.29478323	      7.76572390	      9.10073876	      3.33801307	      6.38782714	      4.81338556	    -16.61989908	     14.11096016	     -9.72444708	    -14.34214894	      1.88175635	     -1.78427934
      4.14000000	      0.23293694	      3.05614381	    175.33228121	      0.27044917	      1.00202362	     -0.46253140	     24.15964038	      0.37964155	      8.58889208	    -23.58005235	      7.51253857	     10.10789683	      3.01740894	      6.24980809	      5.52682197	    -16.69794722	     14.38946030	     -9.65957882	    -14.41234596	      2.00748120	     -1.77521125
      4.15000000	      0.20290137	      3.14470678	    176.09563914	      0.26514571	      1.00176918	     -0.46283624	     24.21874394	      0.60035266	      8.38114385	    -21.89319559	      7.26977910	     11.17883494	      2.66631657	      6.12759171	      6.24220616	    -16.75454950	     14.66260022	     -9.58677297	    -14.48660862	      2.10180983	     -1.71421572
      4.16000000	      0.16485642	      3.21675809	    176.86447562	      0.25970979	      1.00146868	     -0.46311972	     24.23678640	      0.79532916	      8.14306438	    -20.22494512	      7.07535826	     12.19584073	      2.29545921	      6.01263007	      6.93969490	    -16.79628555	     14.94491389	     -9.51046038	    -14.54622015	      2.18212962	     -1.68316913
      4.17000000	      0.11958819	      3.27046456	    177.63537447	      0.25413684	      1.00111967	     -0.46339126	     24.21773621	      0.96630627	      7.89957612	    -18.59442078	      6.93711278	     13.13119006	      1.90507838	      5.90656239	      7.62109873	    -16.82376474	     15.23162943	     -9.43332880	    -14.59125641	      2.24393014	     -1.68072534
      4.18000000	      0.06743953	      3.29438561	    178.38122446	      0.24845453	      1.00071939	     -0.46368624	     24.17884742	      1.11515610	      7.70844848	    -17.03943957	      6.81182307	     14.02909640	      1.49466333	      5.82413955	      8.29533362	    -16.83700394	     15.51548387	     -9.35836366	    -14.62857184	      2.26485996	     -1.63089841
      4.19000000	      0.01292900	      3.29461133	    179.12798231	      0.24262647	      1.00025980	     -0.46396575	     24.11852455	      1.23724160	      7.55089419	    -15.57518951	      6.74187219	     14.78980129	      1.07212557	      5.75623265	      8.94734487	    -16.84387340	     15.79748781	     -9.29140949	    -14.64710828	      2.26190731	     -1.60931763
      4.20000000	     -0.04513940	      3.26976096	    179.86873941	      0.23665389	      0.99974373	     -0.46422764	     24.04848038	      1.33449646	      7.43220980	    -14.24261275	      6.71721224	     15.40668383	      0.63526089	      5.70702494	      9.58269902	    -16.84683723	     16.07662065	     -9.23512266	    -14.64928509	      2.23420619	     -1.60158980
      4.21000000	     -0.10776106	      3.21978381	    180.60131645	      0.23055268	      0.99917771	     -0.46447076	     23.97815194	      1.40823604	      7.35329032	    -13.07666381	      6.72307564	     15.89410229	      0.18764181	      5.67667771	     10.19810736	    -16.85493682	     16.34708186	     -9.19263851	    -14.64313613	      2.17937805	     -1.58784199
      4.22000000	     -0.16940128	      3.14977339	    181.32743161	      0.22431196	      0.99855842	     -0.46469173	     23.92079011	      1.46543021	      7.30049325	    -12.11114136	      6.75647212	     16.23342067	     -0.26447191	      5.66015998	     10.79412810	    -16.87142230	     16.60833582	     -9.16338995	    -14.61959742	      2.10549631	     -1.58386700
      4.23000000	     -0.21217191	      3.05353101	    182.04273283	      0.21794040	      0.99786595	     -0.46489232	     23.90850591	      1.50305643	      7.26563309	    -11.38131968	      6.76923189	     16.42422490	     -0.70550828	      5.66604992	     11.38024654	    -16.89071996	     16.87467856	     -9.13970323	    -14.55866915	      2.00157999	     -1.57575434
      4.24000000	     -0.32361467	      2.96280282	    182.74517531	      0.21141034	      0.99724830	     -0.46506916	     23.82733886	      1.55952773	      7.28798615	    -10.86989293	      6.86724290	     16.60841921	     -1.22482639	      5.65419942	     11.91978667	    -16.92442493	     17.11012824	     -9.14342910	    -14.56688115	      1.91219543	     -1.55354858
      4.25000000	     -0.38334293	      2.84817044	    183.43840626	      0.20475557	      0.99651818	     -0.46522114	     23.82958378	      1.60043919	      7.32459601	    -10.61394515	      6.89966996	     16.65680665	     -1.69766122	      5.66220359	     12.44479390	    -16.95899846	     17.35779365	     -9.13532185	    -14.49990584	      1.79529064	     -1.54325053
      4.26000000	     -0.48094851	      2.74499396	    184.12347231	      0.19797146	      0.99582497	     -0.46534675	     23.79809643	      1.66875473	      7.42696229	    -10.57927399	      6.92464909	     16.65502112	     -2.21079079	      5.64766082	     12.94919249	    -17.01355001	     17.58964475	     -9.13848060	    -14.46864200	      1.69954294	     -1.51737320
      4.27000000	     -0.56908582	      2.64254407	    184.79512053	      0.19106269	      0.99510125	     -0.46546328	     23.78569976	      1.75509593	      7.61718867	    -10.76024630	      6.88082509	     16.59838993	     -2.72011802	      5.62232028	     13.43061691	    -17.07107239	     17.81425478	     -9.13185704	    -14.41556178	      1.60750748	     -1.50017677
      4.28000000	     -0.66566190	      2.54716944	    185.46035608	      0.18403310	      0.99438308	     -0.46554219	     23.75818111	      1.86251723	      7.89044768	    -11.11488987	      6.75015530	     16.48003374	     -3.23771263	      5.58089820	     13.90131088	    -17.14477838	     18.02770421	     -9.11264174	    -14.36161390	      1.52954797	     -1.45974747
      4.29000000	     -0.70898997	      2.45796090	    186.08425354	      0.17689996	      0.99355900	     -0.46566600	     23.80037189	      2.00172349	      8.30485402	    -11.65420167	      6.51399790	     16.41680224	     -3.68858474	      5.53019382	     14.30877207	    -17.24601129	     18.27530859	     -9.08252069	    -14.23631077	      1.44545556	     -1.37275693
      4.30000000	     -0.81678413	      2.38749170	    186.76531033	      0.16964392	      0.99289273	     -0.46565599	     23.72744862	      2.15428728	      8.77110864	    -12.26122284	      6.13926953	     16.13948457	     -4.22168331	      5.44083901	     14.81297934	    -17.33267988	     18.40540299	     -8.99299188	    -14.17529405	      1.41123491	     -1.37586453
      4.31000000	     -0.91124045	      2.32927684	    187.39208118	      0.16227641	      0.99219490	     -0.46569616	     23.69091827	      2.35285464	      9.32128291	    -13.02092858	      5.65156770	     15.78383751	     -4.72670770	      5.33281654	     15.22249712	    -17.45050128	     18.59536173	     -8.86886263	    -14.08948641	      1.37918517	     -1.28133326
      4.32000000	     -0.97011016	      2.28584533	    188.02596291	      0.15481385	      0.99148545	     -0.46566456	     23.68113549	      2.56278212	      9.93544914	    -13.85338266	      5.05915589	     15.46697784	     -5.18356330	      5.21012090	     15.65583181	    -17.59245253	     18.74467252	     -8.72332731	    -13.94912490	      1.36913096	     -1.20998525
      4.33000000	     -1.02457510	      2.25924903	    188.65321373	      0.14725028	      0.99082509	     -0.46557527	     23.67751800	      2.79063626	     10.55162594	    -14.75528566	      4.38757276	     15.12051044	     -5.62383368	      5.06820286	     16.08478351	    -17.76014801	     18.86474908	     -8.55836741	    -13.79130164	      1.38139798	     -1.12524112
      4.34000000	     -1.07746980	      2.25060570	    189.27260912	      0.13958634	      0.99023789	     -0.46540586	     23.68364270	      3.02940885	     11.11302732	    -15.71586284	      3.66734532	     14.73641209	     -6.04807234	      4.90809112	     16.50025049	    -17.95629193	     18.94476963	     -8.37964414	    -13.61755445	      1.42117393	     -1.02853659
      4.35000000	     -1.13387449	      2.25483005	    189.88225396	      0.13183176	      0.98974597	     -0.46514186	     23.69490206	      3.26664267	     11.58330616	    -16.72030069	      2.96530930	     14.29916102	     -6.45679220	      4.73911791	     16.90476825	    -18.19210976	     18.99129390	     -8.18905607	    -13.43512029	      1.48288831	     -0.91319775
      4.36000000	     -1.19643345	      2.27334922	    190.47823120	      0.12399454	      0.98936943	     -0.46476113	     23.70895453	      3.49510773	     11.92175735	    -17.75385709	      2.31546931	     13.82955277	     -6.84817281	      4.56234259	     17.27911824	    -18.47353062	     18.99073694	     -7.99766515	    -13.24642741	      1.57292006	     -0.77939738
      4.37000000	     -1.26982153	      2.30354530	    191.05748695	      0.11608115	      0.98913377	     -0.46428373	     23.71418660	      3.70920860	     12.11145557	    -18.79669294	      1.75729575	     13.30490392	     -7.22187680	      4.38035044	     17.61417993	    -18.80901368	     18.94057514	     -7.79724451	    -13.05786731	      1.68335359	     -0.62765226
      4.38000000	     -1.35714726	      2.34669723	    191.62026133	      0.10811434	      0.98905218	     -0.46369306	     23.69488811	      3.90348616	     12.14930532	    -19.81872135	      1.32371318	     12.74467970	     -7.56944817	      4.19475044	     17.90013771	    -19.21821496	     18.83056737	     -7.58843750	    -12.87531881	      1.81909993	     -0.45290072
      4.39000000	     -1.46022171	      2.39994173	    192.16099642	      0.10010296	      0.98913613	     -0.46299880	     23.64083588	      4.07643984	     12.03988289	    -20.80445498	      1.02993056	     12.14274110	     -7.89107671	      4.00786031	     18.11853860	    -19.69965799	     18.65788680	     -7.35778322	    -12.70148883	      1.97852035	     -0.25279759
      4.40000000	     -1.58186087	      2.46917918	    192.69718499	      0.09208808	      0.98940152	     -0.46218725	     23.52618244	      4.22700613	     11.79269111	    -21.70795521	      0.87474513	     11.49671916	     -8.16356102	      3.81423968	     18.26704195	    -20.29437082	     18.40039609	     -7.08701032	    -12.54391581	      2.16785439	     -0.04141057
      4.41000000	     -1.72021563	      2.55187028	    193.22703572	      0.08408511	      0.98984350	     -0.46129512	     23.33631326	      4.36097155	     11.45162907	    -22.50109298	      0.87242142	     10.82555509	     -8.37416445	      3.61483257	     18.33208518	    -21.01778893	     18.05006574	     -6.76150194	    -12.40206351	      2.37955248	      0.17965130
